<svg version="1" xmlns="http://www.w3.org/2000/svg" width="266.667" height="266.667" viewBox="0 0 200.000000 200.000000"><path d="M130 57.8c0 .8 5 14.7 19.1 52.5l7.4 19.8 12.9-.3 12.9-.3 8.8-24.4 8.9-24.3V57h-16.9l-2.6 8.7c-1.5 4.9-4.4 14.6-6.6 21.6-2.1 7.1-3.9 13.2-3.9 13.5-.2 1.6-3.9-9.4-8.9-26.1L155.7 57h-12.9c-7 0-12.8.4-12.8.8zM19.9 59c-.9.6-8.4 20-16.8 43.2-2.9 7.9-3.1 9.5-2.9 19l.3 10.3H18l1.7-5.8 1.6-5.8 10.5.3 10.6.3L44 126l1.6 5.4 9.9.1h10l.3-8c.3-6.6-.1-9.2-2.2-14.5-1.3-3.6-4.3-11.7-6.6-18-2.4-6.3-4.8-12.9-5.5-14.5-.7-1.7-2.2-5.9-3.5-9.5-1.3-3.6-2.7-6.9-3.2-7.5-.9-1-23.2-1.5-24.9-.5zm14.5 34.5c1 3.6 1.6 6.8 1.3 7.1-.3.3-2.3.4-4.5.2l-3.9-.3 2-6.8c1.1-3.7 2.3-6.7 2.6-6.7.3 0 1.5 2.9 2.5 6.5zm65.1-14c-.9 3.8-2.9 12.5-4.6 19.2-1.6 6.8-2.9 12.5-2.9 12.8 0 .3 1.6.5 3.5.5 3.9 0 3.1 1.9 8.4-21 1.7-7.4 3.5-14.7 4-16.1.8-2.5.7-2.6-3-2.5l-3.9.1-1.5 7zm-12-3.3c-1.1.6-7.4 3.4-14 6.2-12.9 5.5-12.2 4.8-11.6 12.6 0 .9 2 2.3 4.4 3.2 2.3.9 9 3.6 14.8 6.1l10.5 4.5-.2-5.2c-.1-2.8-.2-5.3-.3-5.6 0-.4-1.8-1.2-3.8-2-2.1-.7-5.4-2-7.3-2.8l-3.5-1.4 6.5-2.7c8.8-3.5 8.7-3.4 8.4-8.3-.3-6.6-.1-6.5-3.9-4.6zm21.4-1c-.6 1.8-.2 10.1.6 10.6.5.4 3.9 1.9 7.5 3.4 6.1 2.5 6.4 2.7 4 3.6-13.5 5.3-12.8 4.8-12.4 9.5.1 1.7.3 3.9.3 4.9.1 1.3 1.9.8 10.4-2.8 5.6-2.5 11.3-5 12.7-5.6 5.3-2.2 5.5-2.5 5.8-7l.3-4.6-11.3-4.7c-17.4-7.4-17.8-7.5-17.9-7.3z"/></svg>