<?xml version="1.0" standalone="no"?>
<!DOCTYPE svg PUBLIC "-//W3C//DTD SVG 20010904//EN"
 "http://www.w3.org/TR/2001/REC-SVG-20010904/DTD/svg10.dtd">
<svg version="1.0" xmlns="http://www.w3.org/2000/svg"
 width="200.000000pt" height="200.000000pt" viewBox="0 0 200.000000 200.000000"
 preserveAspectRatio="xMidYMid meet">
<metadata>
Created by potrace 1.11, written by Peter Selinger 2001-2013
</metadata>
<g transform="translate(0.000000,200.000000) scale(0.100000,-0.100000)"
fill="#000000" stroke="none">
<path d="M1300 1422 c0 -8 50 -147 191 -525 l74 -198 129 3 129 3 88 244 89
243 0 119 0 119 -84 0 -85 0 -26 -87 c-15 -49 -44 -146 -66 -216 -21 -71 -39
-132 -39 -135 -2 -16 -39 94 -89 261 l-54 177 -129 0 c-70 0 -128 -4 -128 -8z"/>
<path d="M199 1410 c-9 -6 -84 -200 -168 -432 -29 -79 -31 -95 -29 -190 l3
-103 88 0 87 0 17 58 16 58 105 -3 106 -3 16 -55 16 -54 99 -1 100 0 3 80 c3
66 -1 92 -22 145 -13 36 -43 117 -66 180 -24 63 -48 129 -55 145 -7 17 -22 59
-35 95 -13 36 -27 69 -32 75 -9 10 -232 15 -249 5z m145 -345 c10 -36 16 -68
13 -71 -3 -3 -23 -4 -45 -2 l-39 3 20 68 c11 37 23 67 26 67 3 0 15 -29 25
-65z"/>
<path d="M995 1205 c-9 -38 -29 -125 -46 -192 -16 -68 -29 -125 -29 -128 0 -3
16 -5 35 -5 39 0 31 -19 84 210 17 74 35 147 40 161 8 25 7 26 -30 25 l-39 -1
-15 -70z"/>
<path d="M875 1238 c-11 -6 -74 -34 -140 -62 -129 -55 -122 -48 -116 -126 0
-9 20 -23 44 -32 23 -9 90 -36 148 -61 l105 -45 -2 52 c-1 28 -2 53 -3 56 0 4
-18 12 -38 20 -21 7 -54 20 -73 28 l-35 14 65 27 c88 35 87 34 84 83 -3 66 -1
65 -39 46z"/>
<path d="M1089 1248 c-6 -18 -2 -101 6 -106 5 -4 39 -19 75 -34 61 -25 64 -27
40 -36 -135 -53 -128 -48 -124 -95 1 -17 3 -39 3 -49 1 -13 19 -8 104 28 56
25 113 50 127 56 53 22 55 25 58 70 l3 46 -113 47 c-174 74 -178 75 -179 73z"/>
</g>
</svg>
